<svg width="224" height="154" viewBox="0 0 224 154" fill="none" xmlns="http://www.w3.org/2000/svg">
<path d="M112 46.5C120.089 46.5 127.847 49.7134 133.567 55.4332C139.287 61.1531 142.5 68.9109 142.5 77C142.5 85.0891 139.287 92.8469 133.567 98.5668C127.847 104.287 120.089 107.5 112 107.5C103.911 107.5 96.1531 104.287 90.4332 98.5668C84.7134 92.8469 81.5 85.0891 81.5 77C81.5 68.9109 84.7134 61.1531 90.4332 55.4332C96.1531 49.7134 103.911 46.5 112 46.5V46.5ZM112 0.75C162.833 0.75 206.245 32.3683 223.833 77C206.245 121.632 162.833 153.25 112 153.25C61.1667 153.25 17.755 121.632 0.166656 77C17.755 32.3683 61.1667 0.75 112 0.75ZM22.33 77C30.5472 93.7781 43.3069 107.914 59.1585 117.801C75.0101 127.689 93.3177 132.93 112 132.93C130.682 132.93 148.99 127.689 164.841 117.801C180.693 107.914 193.453 93.7781 201.67 77C193.453 60.2219 180.693 46.0857 164.841 36.1986C148.99 26.3114 130.682 21.0699 112 21.0699C93.3177 21.0699 75.0101 26.3114 59.1585 36.1986C43.3069 46.0857 30.5472 60.2219 22.33 77V77Z" fill="#DADADA"/>
</svg>
